# Blender 3.3.1
# www.blender.org
mtllib glitch_nodeboxes_slope_smooth.mtl
o Cube
v -0.500000 -0.500000 -0.500000
v 0.500000 -0.500000 -0.500000
v -0.500000 0.000000 0.500000
v -0.500000 -0.500000 0.500000
v 0.500000 0.000000 0.500000
v 0.500000 -0.500000 0.500000
vn -0.0000 0.8944 -0.4472
vn -0.0000 -0.0000 1.0000
vn -0.0000 -1.0000 -0.0000
vn -1.0000 -0.0000 -0.0000
vn 1.0000 -0.0000 -0.0000
vt 0.000000 1.000000
vt 0.000000 0.000000
vt 1.000000 1.000000
vt 1.000000 0.000000
vt 0.000000 0.000000
vt 0.000000 0.500000
vt 1.000000 0.500000
vt 0.000000 0.000000
vt 0.000000 1.000000
vt 1.000000 0.000000
vt 1.000000 0.000000
vt 1.000000 0.500000
vt 0.000000 0.500000
vt 1.000000 0.000000
vt 1.000000 1.000000
vt 0.000000 0.000000
s 0
usemtl 1
f 3/5/1 5/11/1 2/3/1 1/1/1
usemtl 2
f 4/9/3 1/2/3 2/4/3 6/15/3
usemtl 3
f 6/14/2 5/12/2 3/6/2 4/8/2
usemtl 4
f 2/4/5 5/13/5 6/16/5
usemtl 6
f 4/10/4 3/7/4 1/2/4
