# Blender 3.3.1
# www.blender.org
mtllib glitch_entities_cube.mtl
g Cube_Cube
v 5.000000 5.000000 5.000000
v 5.000000 -5.000000 5.000000
v -5.000000 5.000000 5.000000
v -5.000000 -5.000000 5.000000
v 5.000000 5.000000 -5.000000
v 5.000000 -5.000000 -5.000000
v -5.000000 5.000000 -5.000000
v -5.000000 -5.000000 -5.000000
vn -0.0000 1.0000 -0.0000
vn -1.0000 -0.0000 -0.0000
vn -0.0000 -0.0000 -1.0000
vn -0.0000 -1.0000 -0.0000
vn -0.0000 -0.0000 1.0000
vn 1.0000 -0.0000 -0.0000
vt 1.000000 1.000000
vt 0.000000 1.000000
vt 1.000000 0.000000
vt 0.000000 0.000000
vt 1.000000 1.000000
vt 0.000000 1.000000
vt 1.000000 0.000000
vt 0.000000 0.000000
vt 0.000000 0.000000
vt 0.000000 1.000000
vt 1.000000 1.000000
vt 0.000000 0.000000
vt 0.000000 1.000000
vt 1.000000 0.000000
vt 1.000000 0.000000
vt 0.000000 1.000000
vt 1.000000 1.000000
vt 0.000000 0.000000
vt 1.000000 0.000000
vt 1.000000 1.000000
s 0
g Cube_1
usemtl 1
f 1/2/1 5/9/1 7/15/1 3/5/1
g Cube_2
usemtl 2
f 6/13/4 2/4/4 4/7/4 8/20/4
g Cube_3
usemtl 3
f 4/7/2 3/5/2 7/16/2 8/18/2
g Cube_4
usemtl 4
f 6/14/6 5/11/6 1/2/6 2/4/6
g Cube_5
usemtl 5
f 2/3/5 1/1/5 3/6/5 4/8/5
g Cube_6
usemtl 6
f 8/19/3 7/17/3 5/10/3 6/12/3
